<?xml version="1.0" encoding="utf-8"?>
<!-- Generator: Adobe Illustrator 21.0.0, SVG Export Plug-In . SVG Version: 6.00 Build 0)  -->
<svg version="1.1" id="Слой_1" xmlns="http://www.w3.org/2000/svg" xmlns:xlink="http://www.w3.org/1999/xlink" x="0px" y="0px"
	 viewBox="0 0 281.9 281.9" style="enable-background:new 0 0 281.9 281.9;" xml:space="preserve">
<style type="text/css">
	.st0{display:none;}
</style>
<g>
	<g>
		<path d="M254.7,151c0-62.6-50.5-113.1-113.1-113.1S28.5,88.4,28.5,151c0,34,14.9,64.3,38.5,85l15,11.1c17.3,10.7,37.7,17,59.6,17
			c21.5,0,41.4-6,58.5-16.3l15.2-10.9C239.4,216.2,254.7,185.5,254.7,151L254.7,151z M45.9,151c0-52.2,43.5-95.7,95.7-95.7
			s95.7,43.5,95.7,95.7s-43.5,95.7-95.7,95.7S45.9,203.2,45.9,151z"/>
		<path d="M181.7,142.3H159c-5.2,0-8.7-3.5-8.7-8.7v-31.3c0-5.2-3.5-8.7-8.7-8.7c-5.2,0-8.7,3.5-8.7,8.7v31.3
			c0,13.9,12.2,26.1,26.1,26.1h22.6c3.5,0,8.7-3.5,8.7-8.7C190.4,145.8,186.9,142.3,181.7,142.3z"/>
		<path class="st0" d="M280.8,64c-13.9-22.6-33.1-41.8-55.7-55.7c-5.2-1.7-10.4,0-12.2,3.5c-1.7,5.2,0,10.4,3.5,12.2
			c20.9,10.4,38.3,27.8,50.5,48.7c1.7,1.7,3.5,3.5,7,3.5c1.7,0,3.5,0,3.5,0C282.6,72.7,282.6,67.5,280.8,64z"/>
		<path class="st0" d="M65.1,22.3c5.2-3.5,5.2-8.7,3.5-12.2c-3.5-5.2-8.7-5.2-12.2-3.5C33.7,20.5,14.6,39.7,0.7,62.3
			c-1.7,3.5,0,10.4,3.5,12.2c1.7,1.7,3.5,1.7,5.2,1.7s5.2-1.7,5.2-5.2C26.8,51.8,44.2,34.4,65.1,22.3z"/>
	</g>
</g>
</svg>
