<?xml version="1.0" encoding="utf-8"?>
<!-- Generator: Adobe Illustrator 21.0.0, SVG Export Plug-In . SVG Version: 6.00 Build 0)  -->
<svg version="1.1" id="Capa_1" xmlns="http://www.w3.org/2000/svg" xmlns:xlink="http://www.w3.org/1999/xlink" x="0px" y="0px"
	 viewBox="0 0 60 60" style="enable-background:new 0 0 60 60;" xml:space="preserve">
	 
<path d="M0.3,56.8c-0.3,0.3-0.4,0.8-0.2,1.2c0.2,0.3,0.5,0.6,0.9,0.6c0,0,0.1,0,0.1,0c0.4-0.1,9.8-1.4,16.6-5.3
	c3.9,1.6,8,2.3,12.2,2.3c16.5,0,30-12.1,30-27s-13.5-27-30-27S0,13.6,0,28.5c0,5.2,1.6,10.2,4.8,14.6C4.2,49.6,2.6,54.5,0.3,56.8z
	 M3.4,56.1c2.2-3.7,3.1-9,3.4-13.2c0-0.2,0-0.5-0.2-0.7C3.6,38.1,2,33.4,2,28.5c0-13.8,12.6-25,28-25s28,11.2,28,25s-12.6,25-28,25
	c-3.5,0-6.9-0.6-10.1-1.7c-2.4-0.9-2.7-0.7-2.8-0.6l0,0C12.7,53.9,6.7,55.4,3.4,56.1z"/>
</svg>
